# xmcd CD database file
#
# Track frame offsets:
#	150
#	17253
#	30977
#	56251
#	70157
#	84354
#	104848
#	124393
#	137856
#	157469
#	175029
#	186988
#	199166
#	214588
#	236611
#	265038
#
# Disc length: 4519 seconds
#
# Revision: 0
# Processed by: cddbd v1.5.2PL0 Copyright (c) Steve Scherf et al.
# Submitted via: CDex 1.70beta2
#
DISCID=df11a510
DTITLE=Webb Wilder - It's Live time !
DYEAR=2007
DGENRE=Blues
TTITLE0=Tough It Out
TTITLE1=Stay Out Of Automobiles
TTITLE2=Baby Please Don't Go
TTITLE3=You Might Be Lonely For A Reason
TTITLE4=One Taste Of The Bait
TTITLE5=Human Cannonball
TTITLE6=If You're Looking For A Fool
TTITLE7=Sputnik
TTITLE8=Big Time
TTITLE9=No Great Shakes
TTITLE10=Miss Missy From Ol' Hong Kong
TTITLE11=Poolside
TTITLE12=How Long Can She Last
TTITLE13=Louisiana Hannah
TTITLE14=I Just Had To Laugh
TTITLE15=Video Program
EXTD=YEAR: 2007
EXTT0=
EXTT1=
EXTT2=
EXTT3=
EXTT4=
EXTT5=
EXTT6=
EXTT7=
EXTT8=
EXTT9=
EXTT10=
EXTT11=
EXTT12=
EXTT13=
EXTT14=
EXTT15=
PLAYORDER=
